<svg width="651" height="614" viewBox="0 0 651 614" fill="none" xmlns="http://www.w3.org/2000/svg">
<g clip-path="url(#clip0_129_28)">
<path fill-rule="evenodd" clip-rule="evenodd" d="M306.429 128.03C362.815 69.4203 464.621 173.585 548.968 292.576C633.315 411.567 690.824 468.108 617.155 544.684C543.486 621.259 386.243 651.707 306.429 544.684C226.616 437.661 250.044 186.638 306.429 128.03Z" fill="url(#paint0_linear_129_28)"/>
<path fill-rule="evenodd" clip-rule="evenodd" d="M13.9027 284.6C-34.5468 238.028 51.5617 153.94 149.925 84.274C248.289 14.607 295.03 -32.8934 358.331 27.9542C421.632 88.801 446.802 218.677 358.331 284.601C269.861 350.523 62.3523 331.171 13.9027 284.601V284.6Z" fill="#F4F4FC"/>
<path fill-rule="evenodd" clip-rule="evenodd" d="M622.98 598.113C623.723 598.113 624.436 598.408 624.961 598.934C625.487 599.46 625.782 600.173 625.782 600.916C625.782 601.66 625.487 602.373 624.961 602.899C624.436 603.425 623.723 603.72 622.98 603.72C622.237 603.72 621.524 603.425 620.999 602.899C620.473 602.373 620.178 601.66 620.178 600.916C620.178 600.173 620.473 599.46 620.999 598.934C621.524 598.408 622.237 598.113 622.98 598.113ZM602.432 598.113C603.175 598.113 603.888 598.408 604.413 598.934C604.939 599.46 605.234 600.173 605.234 600.916C605.234 601.66 604.939 602.373 604.413 602.899C603.888 603.425 603.175 603.72 602.432 603.72C601.689 603.72 600.976 603.425 600.451 602.899C599.925 602.373 599.63 601.66 599.63 600.916C599.63 600.173 599.925 599.46 600.451 598.934C600.976 598.408 601.689 598.113 602.432 598.113ZM581.884 598.113C582.627 598.113 583.34 598.408 583.865 598.934C584.391 599.46 584.686 600.173 584.686 600.916C584.686 601.66 584.391 602.373 583.865 602.899C583.34 603.425 582.627 603.72 581.884 603.72C581.141 603.72 580.428 603.425 579.902 602.899C579.377 602.373 579.082 601.66 579.082 600.916C579.082 600.173 579.377 599.46 579.902 598.934C580.428 598.408 581.141 598.113 581.884 598.113ZM561.336 598.113C562.079 598.113 562.792 598.408 563.317 598.934C563.843 599.46 564.138 600.173 564.138 600.916C564.138 601.66 563.843 602.373 563.317 602.899C562.792 603.425 562.079 603.72 561.336 603.72C560.593 603.72 559.88 603.425 559.354 602.899C558.829 602.373 558.534 601.66 558.534 600.916C558.534 600.173 558.829 599.46 559.354 598.934C559.88 598.408 560.593 598.113 561.336 598.113ZM540.788 598.113C541.531 598.113 542.244 598.408 542.769 598.934C543.294 599.46 543.59 600.173 543.59 600.916C543.59 601.66 543.294 602.373 542.769 602.899C542.244 603.425 541.531 603.72 540.788 603.72C540.045 603.72 539.332 603.425 538.806 602.899C538.281 602.373 537.986 601.66 537.986 600.916C537.986 600.173 538.281 599.46 538.806 598.934C539.332 598.408 540.045 598.113 540.788 598.113ZM520.24 598.113C520.983 598.113 521.695 598.408 522.221 598.934C522.746 599.46 523.042 600.173 523.042 600.916C523.042 601.66 522.746 602.373 522.221 602.899C521.695 603.425 520.983 603.72 520.24 603.72C519.496 603.72 518.784 603.425 518.258 602.899C517.733 602.373 517.438 601.66 517.438 600.916C517.438 600.173 517.733 599.46 518.258 598.934C518.784 598.408 519.496 598.113 520.24 598.113ZM499.692 598.113C500.435 598.113 501.147 598.408 501.673 598.934C502.198 599.46 502.494 600.173 502.494 600.916C502.494 601.66 502.198 602.373 501.673 602.899C501.147 603.425 500.435 603.72 499.692 603.72C498.948 603.72 498.236 603.425 497.71 602.899C497.185 602.373 496.89 601.66 496.89 600.916C496.89 600.173 497.185 599.46 497.71 598.934C498.236 598.408 498.948 598.113 499.692 598.113ZM479.144 598.113C479.887 598.113 480.599 598.408 481.125 598.934C481.65 599.46 481.946 600.173 481.946 600.916C481.946 601.66 481.65 602.373 481.125 602.899C480.599 603.425 479.887 603.72 479.144 603.72C478.4 603.72 477.688 603.425 477.162 602.899C476.637 602.373 476.342 601.66 476.342 600.916C476.342 600.173 476.637 599.46 477.162 598.934C477.688 598.408 478.4 598.113 479.144 598.113ZM458.595 598.113C459.339 598.113 460.051 598.408 460.577 598.934C461.102 599.46 461.397 600.173 461.397 600.916C461.397 601.66 461.102 602.373 460.577 602.899C460.051 603.425 459.339 603.72 458.595 603.72C457.852 603.72 457.14 603.425 456.614 602.899C456.089 602.373 455.793 601.66 455.793 600.916C455.793 600.173 456.089 599.46 456.614 598.934C457.14 598.408 457.852 598.113 458.595 598.113ZM458.595 577.553C459.339 577.553 460.051 577.848 460.577 578.374C461.102 578.9 461.397 579.613 461.397 580.356C461.397 581.1 461.102 581.813 460.577 582.339C460.051 582.865 459.339 583.16 458.595 583.16C457.852 583.16 457.14 582.865 456.614 582.339C456.089 581.813 455.793 581.1 455.793 580.356C455.793 579.613 456.089 578.9 456.614 578.374C457.14 577.848 457.852 577.553 458.595 577.553ZM622.98 577.553C623.723 577.553 624.436 577.848 624.961 578.374C625.487 578.9 625.782 579.613 625.782 580.356C625.782 581.1 625.487 581.813 624.961 582.339C624.436 582.865 623.723 583.16 622.98 583.16C622.237 583.16 621.524 582.865 620.999 582.339C620.473 581.813 620.178 581.1 620.178 580.356C620.178 579.613 620.473 578.9 620.999 578.374C621.524 577.848 622.237 577.553 622.98 577.553ZM602.432 577.553C603.175 577.553 603.888 577.848 604.413 578.374C604.939 578.9 605.234 579.613 605.234 580.356C605.234 581.1 604.939 581.813 604.413 582.339C603.888 582.865 603.175 583.16 602.432 583.16C601.689 583.16 600.976 582.865 600.451 582.339C599.925 581.813 599.63 581.1 599.63 580.356C599.63 579.613 599.925 578.9 600.451 578.374C600.976 577.848 601.689 577.553 602.432 577.553ZM581.884 577.553C582.627 577.553 583.34 577.848 583.865 578.374C584.391 578.9 584.686 579.613 584.686 580.356C584.686 581.1 584.391 581.813 583.865 582.339C583.34 582.865 582.627 583.16 581.884 583.16C581.141 583.16 580.428 582.865 579.902 582.339C579.377 581.813 579.082 581.1 579.082 580.356C579.082 579.613 579.377 578.9 579.902 578.374C580.428 577.848 581.141 577.553 581.884 577.553ZM561.336 577.553C562.079 577.553 562.792 577.848 563.317 578.374C563.843 578.9 564.138 579.613 564.138 580.356C564.138 581.1 563.843 581.813 563.317 582.339C562.792 582.865 562.079 583.16 561.336 583.16C560.593 583.16 559.88 582.865 559.354 582.339C558.829 581.813 558.534 581.1 558.534 580.356C558.534 579.613 558.829 578.9 559.354 578.374C559.88 577.848 560.593 577.553 561.336 577.553ZM540.788 577.553C541.531 577.553 542.244 577.848 542.769 578.374C543.294 578.9 543.59 579.613 543.59 580.356C543.59 581.1 543.294 581.813 542.769 582.339C542.244 582.865 541.531 583.16 540.788 583.16C540.045 583.16 539.332 582.865 538.806 582.339C538.281 581.813 537.986 581.1 537.986 580.356C537.986 579.613 538.281 578.9 538.806 578.374C539.332 577.848 540.045 577.553 540.788 577.553ZM520.24 577.553C520.983 577.553 521.695 577.848 522.221 578.374C522.746 578.9 523.042 579.613 523.042 580.356C523.042 581.1 522.746 581.813 522.221 582.339C521.695 582.865 520.983 583.16 520.24 583.16C519.496 583.16 518.784 582.865 518.258 582.339C517.733 581.813 517.438 581.1 517.438 580.356C517.438 579.613 517.733 578.9 518.258 578.374C518.784 577.848 519.496 577.553 520.24 577.553ZM499.692 577.553C500.435 577.553 501.147 577.848 501.673 578.374C502.198 578.9 502.494 579.613 502.494 580.356C502.494 581.1 502.198 581.813 501.673 582.339C501.147 582.865 500.435 583.16 499.692 583.16C498.948 583.16 498.236 582.865 497.71 582.339C497.185 581.813 496.89 581.1 496.89 580.356C496.89 579.613 497.185 578.9 497.71 578.374C498.236 577.848 498.948 577.553 499.692 577.553ZM479.144 577.553C479.887 577.553 480.599 577.848 481.125 578.374C481.65 578.9 481.946 579.613 481.946 580.356C481.946 581.1 481.65 581.813 481.125 582.339C480.599 582.865 479.887 583.16 479.144 583.16C478.4 583.16 477.688 582.865 477.162 582.339C476.637 581.813 476.342 581.1 476.342 580.356C476.342 579.613 476.637 578.9 477.162 578.374C477.688 577.848 478.4 577.553 479.144 577.553ZM479.144 556.993C479.887 556.993 480.599 557.288 481.125 557.814C481.65 558.339 481.946 559.053 481.946 559.796C481.946 560.54 481.65 561.253 481.125 561.779C480.599 562.304 479.887 562.6 479.144 562.6C478.4 562.6 477.688 562.304 477.162 561.779C476.637 561.253 476.342 560.54 476.342 559.796C476.342 559.053 476.637 558.339 477.162 557.814C477.688 557.288 478.4 556.993 479.144 556.993ZM499.692 556.993C500.435 556.993 501.147 557.288 501.673 557.814C502.198 558.339 502.494 559.053 502.494 559.796C502.494 560.54 502.198 561.253 501.673 561.779C501.147 562.304 500.435 562.6 499.692 562.6C498.948 562.6 498.236 562.304 497.71 561.779C497.185 561.253 496.89 560.54 496.89 559.796C496.89 559.053 497.185 558.339 497.71 557.814C498.236 557.288 498.948 556.993 499.692 556.993ZM520.24 556.993C520.983 556.993 521.695 557.288 522.221 557.814C522.746 558.339 523.042 559.053 523.042 559.796C523.042 560.54 522.746 561.253 522.221 561.779C521.695 562.304 520.983 562.6 520.24 562.6C519.496 562.6 518.784 562.304 518.258 561.779C517.733 561.253 517.438 560.54 517.438 559.796C517.438 559.053 517.733 558.339 518.258 557.814C518.784 557.288 519.496 556.993 520.24 556.993ZM540.788 556.993C541.531 556.993 542.244 557.288 542.769 557.814C543.294 558.339 543.59 559.053 543.59 559.796C543.59 560.54 543.294 561.253 542.769 561.779C542.244 562.304 541.531 562.6 540.788 562.6C540.045 562.6 539.332 562.304 538.806 561.779C538.281 561.253 537.986 560.54 537.986 559.796C537.986 559.053 538.281 558.339 538.806 557.814C539.332 557.288 540.045 556.993 540.788 556.993ZM561.336 556.993C562.079 556.993 562.792 557.288 563.317 557.814C563.843 558.339 564.138 559.053 564.138 559.796C564.138 560.54 563.843 561.253 563.317 561.779C562.792 562.304 562.079 562.6 561.336 562.6C560.593 562.6 559.88 562.304 559.354 561.779C558.829 561.253 558.534 560.54 558.534 559.796C558.534 559.053 558.829 558.339 559.354 557.814C559.88 557.288 560.593 556.993 561.336 556.993ZM581.884 556.993C582.627 556.993 583.34 557.288 583.865 557.814C584.391 558.339 584.686 559.053 584.686 559.796C584.686 560.54 584.391 561.253 583.865 561.779C583.34 562.304 582.627 562.6 581.884 562.6C581.141 562.6 580.428 562.304 579.902 561.779C579.377 561.253 579.082 560.54 579.082 559.796C579.082 559.053 579.377 558.339 579.902 557.814C580.428 557.288 581.141 556.993 581.884 556.993ZM602.432 556.993C603.175 556.993 603.888 557.288 604.413 557.814C604.939 558.339 605.234 559.053 605.234 559.796C605.234 560.54 604.939 561.253 604.413 561.779C603.888 562.304 603.175 562.6 602.432 562.6C601.689 562.6 600.976 562.304 600.451 561.779C599.925 561.253 599.63 560.54 599.63 559.796C599.63 559.053 599.925 558.339 600.451 557.814C600.976 557.288 601.689 556.993 602.432 556.993ZM622.98 556.993C623.723 556.993 624.436 557.288 624.961 557.814C625.487 558.339 625.782 559.053 625.782 559.796C625.782 560.54 625.487 561.253 624.961 561.779C624.436 562.304 623.723 562.6 622.98 562.6C622.237 562.6 621.524 562.304 620.999 561.779C620.473 561.253 620.178 560.54 620.178 559.796C620.178 559.053 620.473 558.339 620.999 557.814C621.524 557.288 622.237 556.993 622.98 556.993ZM458.595 556.993C459.339 556.993 460.051 557.288 460.577 557.814C461.102 558.339 461.397 559.053 461.397 559.796C461.397 560.54 461.102 561.253 460.577 561.779C460.051 562.304 459.339 562.6 458.595 562.6C457.852 562.6 457.14 562.304 456.614 561.779C456.089 561.253 455.793 560.54 455.793 559.796C455.793 559.053 456.089 558.339 456.614 557.814C457.14 557.288 457.852 556.993 458.595 556.993ZM479.144 536.432C479.887 536.432 480.599 536.728 481.125 537.254C481.65 537.779 481.946 538.492 481.946 539.236C481.946 539.98 481.65 540.693 481.125 541.219C480.599 541.744 479.887 542.04 479.144 542.04C478.4 542.04 477.688 541.744 477.162 541.219C476.637 540.693 476.342 539.98 476.342 539.236C476.342 538.492 476.637 537.779 477.162 537.254C477.688 536.728 478.4 536.432 479.144 536.432ZM499.692 536.432C500.435 536.432 501.147 536.728 501.673 537.254C502.198 537.779 502.494 538.492 502.494 539.236C502.494 539.98 502.198 540.693 501.673 541.219C501.147 541.744 500.435 542.04 499.692 542.04C498.948 542.04 498.236 541.744 497.71 541.219C497.185 540.693 496.89 539.98 496.89 539.236C496.89 538.492 497.185 537.779 497.71 537.254C498.236 536.728 498.948 536.432 499.692 536.432ZM520.24 536.432C520.983 536.432 521.695 536.728 522.221 537.254C522.746 537.779 523.042 538.492 523.042 539.236C523.042 539.98 522.746 540.693 522.221 541.219C521.695 541.744 520.983 542.04 520.24 542.04C519.496 542.04 518.784 541.744 518.258 541.219C517.733 540.693 517.438 539.98 517.438 539.236C517.438 538.492 517.733 537.779 518.258 537.254C518.784 536.728 519.496 536.432 520.24 536.432ZM540.788 536.432C541.531 536.432 542.244 536.728 542.769 537.254C543.294 537.779 543.59 538.492 543.59 539.236C543.59 539.98 543.294 540.693 542.769 541.219C542.244 541.744 541.531 542.04 540.788 542.04C540.045 542.04 539.332 541.744 538.806 541.219C538.281 540.693 537.986 539.98 537.986 539.236C537.986 538.492 538.281 537.779 538.806 537.254C539.332 536.728 540.045 536.432 540.788 536.432ZM561.336 536.432C562.079 536.432 562.792 536.728 563.317 537.254C563.843 537.779 564.138 538.492 564.138 539.236C564.138 539.98 563.843 540.693 563.317 541.219C562.792 541.744 562.079 542.04 561.336 542.04C560.593 542.04 559.88 541.744 559.354 541.219C558.829 540.693 558.534 539.98 558.534 539.236C558.534 538.492 558.829 537.779 559.354 537.254C559.88 536.728 560.593 536.432 561.336 536.432ZM581.884 536.432C582.627 536.432 583.34 536.728 583.865 537.254C584.391 537.779 584.686 538.492 584.686 539.236C584.686 539.98 584.391 540.693 583.865 541.219C583.34 541.744 582.627 542.04 581.884 542.04C581.141 542.04 580.428 541.744 579.902 541.219C579.377 540.693 579.082 539.98 579.082 539.236C579.082 538.492 579.377 537.779 579.902 537.254C580.428 536.728 581.141 536.432 581.884 536.432ZM602.432 536.432C603.175 536.432 603.888 536.728 604.413 537.254C604.939 537.779 605.234 538.492 605.234 539.236C605.234 539.98 604.939 540.693 604.413 541.219C603.888 541.744 603.175 542.04 602.432 542.04C601.689 542.04 600.976 541.744 600.451 541.219C599.925 540.693 599.63 539.98 599.63 539.236C599.63 538.492 599.925 537.779 600.451 537.254C600.976 536.728 601.689 536.432 602.432 536.432ZM622.98 536.432C623.723 536.432 624.436 536.728 624.961 537.254C625.487 537.779 625.782 538.492 625.782 539.236C625.782 539.98 625.487 540.693 624.961 541.219C624.436 541.744 623.723 542.04 622.98 542.04C622.237 542.04 621.524 541.744 620.999 541.219C620.473 540.693 620.178 539.98 620.178 539.236C620.178 538.492 620.473 537.779 620.999 537.254C621.524 536.728 622.237 536.432 622.98 536.432ZM458.595 536.432C459.339 536.432 460.051 536.728 460.577 537.254C461.102 537.779 461.397 538.492 461.397 539.236C461.397 539.98 461.102 540.693 460.577 541.219C460.051 541.744 459.339 542.04 458.595 542.04C457.852 542.04 457.14 541.744 456.614 541.219C456.089 540.693 455.793 539.98 455.793 539.236C455.793 538.492 456.089 537.779 456.614 537.254C457.14 536.728 457.852 536.432 458.595 536.432Z" fill="#7367F0"/>
</g>
<defs>
<linearGradient id="paint0_linear_129_28" x1="28173" y1="15882.7" x2="2773.76" y2="44652.1" gradientUnits="userSpaceOnUse">
<stop stop-color="#CE9FFC"/>
<stop offset="1" stop-color="#7367F0"/>
</linearGradient>
<clipPath id="clip0_129_28">
<rect width="651" height="614" fill="white"/>
</clipPath>
</defs>
</svg>
