<?xml version="1.0" encoding="UTF-8"?>
<!DOCTYPE svg PUBLIC "-//W3C//DTD SVG 1.1//EN" "http://www.w3.org/Graphics/SVG/1.1/DTD/svg11.dtd">
<svg xmlns="http://www.w3.org/2000/svg" version="1.1" width="1042px" height="1042px" style="shape-rendering:geometricPrecision; text-rendering:geometricPrecision; image-rendering:optimizeQuality; fill-rule:evenodd; clip-rule:evenodd" xmlns:xlink="http://www.w3.org/1999/xlink">
<g><path style="opacity:0.961" fill="#41aee3" d="M 230.5,194.5 C 232.5,194.5 234.5,194.5 236.5,194.5C 237.07,212.162 237.57,229.829 238,247.5C 251.059,237.845 263.726,238.179 276,248.5C 277.891,252.611 278.891,256.944 279,261.5C 279.167,282.175 279.667,302.841 280.5,323.5C 283.673,324.21 286.673,325.377 289.5,327C 287.377,328.194 285.043,328.86 282.5,329C 274.167,329.667 265.833,329.667 257.5,329C 255.616,328.784 253.949,328.117 252.5,327C 256.073,325.629 259.573,324.129 263,322.5C 263.667,301.167 263.667,279.833 263,258.5C 258.32,246.717 250.987,244.717 241,252.5C 239.438,254.957 238.438,257.624 238,260.5C 237.333,280.5 237.333,300.5 238,320.5C 238.309,321.766 238.809,322.933 239.5,324C 241.833,324.333 244.167,324.667 246.5,325C 249.167,326.333 249.167,327.667 246.5,329C 236.167,329.667 225.833,329.667 215.5,329C 214.5,328.667 213.5,328.333 212.5,328C 211.167,327.333 211.167,326.667 212.5,326C 215.351,324.711 218.351,324.211 221.5,324.5C 222.559,286.174 222.726,247.84 222,209.5C 221.727,207.671 220.893,206.171 219.5,205C 215.973,204.049 212.64,202.716 209.5,201C 213.99,199.544 218.656,198.544 223.5,198C 226.174,197.33 228.507,196.163 230.5,194.5 Z"/></g>
<g><path style="opacity:0.958" fill="#41aee3" d="M 533.5,194.5 C 540.655,194.089 547.655,194.922 554.5,197C 561.051,203.574 561.051,209.908 554.5,216C 549.78,217.268 546.28,215.768 544,211.5C 543.83,207.507 543.996,203.507 544.5,199.5C 539.365,198.426 535.532,200.093 533,204.5C 530.001,215.29 528.835,226.29 529.5,237.5C 533.182,237.335 536.848,237.501 540.5,238C 541.91,238.368 542.91,239.201 543.5,240.5C 539.009,242.217 534.343,242.883 529.5,242.5C 529.333,274.168 529.5,305.835 530,337.5C 530.309,338.766 530.809,339.933 531.5,341C 534.167,341.333 536.833,341.667 539.5,342C 542.167,343.333 542.167,344.667 539.5,346C 529.167,346.667 518.833,346.667 508.5,346C 506.22,345.767 504.22,344.934 502.5,343.5C 504.882,341.929 507.549,341.096 510.5,341C 511.667,340.5 512.5,339.667 513,338.5C 514.78,306.507 514.947,274.507 513.5,242.5C 510.62,242.967 508.287,242.134 506.5,240C 506.645,239.228 506.978,238.561 507.5,238C 509.81,237.503 512.143,237.337 514.5,237.5C 514.225,224.599 517.392,212.599 524,201.5C 527.145,199.024 530.312,196.69 533.5,194.5 Z"/></g>
<g><path style="opacity:0.958" fill="#41aee3" d="M 633.5,194.5 C 634.822,194.33 635.989,194.663 637,195.5C 637.333,198.5 637.667,201.5 638,204.5C 638.333,243.833 638.667,283.167 639,322.5C 642.667,323.833 646.333,325.167 650,326.5C 652.659,325.065 655.492,324.065 658.5,323.5C 660.832,304.881 661.165,286.215 659.5,267.5C 655.167,267.085 651.167,265.752 647.5,263.5C 656.292,261.902 664.625,258.902 672.5,254.5C 674.258,256.792 675.424,259.459 676,262.5C 685.472,253.929 695.972,252.429 707.5,258C 714.678,263.345 717.344,270.345 715.5,279C 716.143,293.813 716.81,308.646 717.5,323.5C 720.391,324.006 723.058,325.006 725.5,326.5C 723.453,328.015 721.119,328.849 718.5,329C 708.697,330.027 699.03,329.36 689.5,327C 692.935,325.301 696.435,323.801 700,322.5C 700.848,304.473 700.515,286.473 699,268.5C 694.654,261.297 688.821,259.797 681.5,264C 678.865,265.961 677.031,268.461 676,271.5C 675.5,288.83 675.333,306.163 675.5,323.5C 679.095,323.976 682.428,325.142 685.5,327C 673.53,330.048 661.53,330.214 649.5,327.5C 647.044,328.948 644.378,329.614 641.5,329.5C 632.512,328.819 623.512,328.319 614.5,328C 611.999,326.582 612.332,325.582 615.5,325C 606.747,324.771 598.413,326.604 590.5,330.5C 589.185,328.231 588.018,325.898 587,323.5C 576.933,331.322 566.1,332.489 554.5,327C 551.894,325.062 550.061,322.562 549,319.5C 548.318,300.492 547.485,281.492 546.5,262.5C 544.224,261.787 541.891,261.287 539.5,261C 538.09,260.632 537.09,259.799 536.5,258.5C 545.095,256.305 553.762,255.971 562.5,257.5C 563.116,276.494 563.616,295.494 564,314.5C 567.459,323.825 573.626,325.992 582.5,321C 586.047,318.406 587.881,314.906 588,310.5C 589.75,295.287 589.583,280.12 587.5,265C 587.167,264.167 586.833,263.333 586.5,262.5C 583.278,262.025 580.278,261.025 577.5,259.5C 578.09,258.201 579.09,257.368 580.5,257C 588.493,256.5 596.493,256.334 604.5,256.5C 604.333,276.836 604.5,297.169 605,317.5C 608.715,320.076 612.882,321.076 617.5,320.5C 617.5,321.833 617.5,323.167 617.5,324.5C 620.238,325.035 622.072,324.035 623,321.5C 623.667,283.5 623.667,245.5 623,207.5C 622.03,204.431 620.197,203.765 617.5,205.5C 612.16,204.709 611.493,202.876 615.5,200C 622.084,199.693 628.084,197.86 633.5,194.5 Z"/></g>
<g><path style="opacity:0.959" fill="#41aee3" d="M 476.5,225.5 C 478.144,225.286 479.644,225.62 481,226.5C 482.337,230.026 482.837,233.692 482.5,237.5C 488.94,237.231 495.273,237.898 501.5,239.5C 500.91,240.799 499.91,241.632 498.5,242C 492.843,242.499 487.176,242.666 481.5,242.5C 481.333,261.503 481.5,280.503 482,299.5C 482.361,306.199 483.028,312.865 484,319.5C 485.296,321.815 487.296,322.815 490,322.5C 494.441,321.197 498.607,319.197 502.5,316.5C 503.72,316.887 504.387,317.72 504.5,319C 502.446,324.052 498.779,327.385 493.5,329C 485.999,331.294 478.666,330.961 471.5,328C 470.213,326.59 469.046,325.09 468,323.5C 466.585,296.861 466.085,270.195 466.5,243.5C 462.802,243.448 459.135,243.114 455.5,242.5C 455.5,241.167 455.5,239.833 455.5,238.5C 464.957,237.947 471.957,233.614 476.5,225.5 Z"/></g>
<g><path style="opacity:0.941" fill="#41aee3" d="M 900.5,227.5 C 902.167,227.5 903.833,227.5 905.5,227.5C 905.5,238.167 905.5,248.833 905.5,259.5C 903.61,259.703 902.11,259.037 901,257.5C 898.053,244.212 889.887,237.045 876.5,236C 864.25,239.335 860.75,246.835 866,258.5C 867.167,259.667 868.333,260.833 869.5,262C 879.5,266.667 889.5,271.333 899.5,276C 915.514,288.792 917.681,303.625 906,320.5C 898.252,328.814 888.752,331.981 877.5,330C 871.521,328.548 865.688,326.715 860,324.5C 857.333,326.5 854.667,328.5 852,330.5C 850.956,329.377 850.29,328.044 850,326.5C 849.333,319.167 849.333,311.833 850,304.5C 850.101,301.3 850.768,298.3 852,295.5C 853,296.5 854,297.5 855,298.5C 858.062,317.255 868.895,325.755 887.5,324C 899.198,318.423 901.698,309.923 895,298.5C 892.108,295.943 888.941,293.776 885.5,292C 874.545,289.357 864.879,284.357 856.5,277C 852.123,271.678 850.123,265.511 850.5,258.5C 851.642,240.358 861.309,231.024 879.5,230.5C 884.978,230.729 890.312,231.729 895.5,233.5C 898.637,232.699 900.304,230.699 900.5,227.5 Z"/></g>
<g><path style="opacity:0.935" fill="#41aee3" d="M 835.5,236.5 C 836.79,237.058 837.623,238.058 838,239.5C 838.683,244.816 839.183,250.15 839.5,255.5C 839.633,259.336 838.967,263.002 837.5,266.5C 836.522,266.023 835.689,265.357 835,264.5C 832.366,254.033 825.866,247.366 815.5,244.5C 807.562,245.94 802.229,250.44 799.5,258C 800.657,261.827 802.657,265.16 805.5,268C 814.748,272.527 824.082,276.86 833.5,281C 844.966,288.732 848.466,299.232 844,312.5C 837.869,326.819 827.035,332.652 811.5,330C 806.494,328.555 801.661,326.721 797,324.5C 794.761,327.608 791.927,329.608 788.5,330.5C 788.5,320.167 788.5,309.833 788.5,299.5C 790.39,299.297 791.89,299.963 793,301.5C 795.278,316.446 803.945,324.446 819,325.5C 831.545,322.078 835.211,314.411 830,302.5C 828.5,301 827,299.5 825.5,298C 816.382,294.275 807.382,290.275 798.5,286C 788.226,276.656 785.726,265.489 791,252.5C 795.378,244.287 802.212,239.954 811.5,239.5C 818.481,241.073 825.481,241.406 832.5,240.5C 833.524,239.148 834.524,237.815 835.5,236.5 Z"/></g>
<g><path style="opacity:0.94" fill="#41aee3" d="M 748.5,248.5 C 764.096,246.55 775.93,252.216 784,265.5C 785.156,269.418 785.656,273.418 785.5,277.5C 770.979,277.226 756.479,277.559 742,278.5C 740.342,278.675 739.009,279.342 738,280.5C 736.272,292.193 738.272,303.193 744,313.5C 754.669,325.134 765.669,325.467 777,314.5C 778.485,310.176 781.318,307.509 785.5,306.5C 781.928,324.553 770.928,332.386 752.5,330C 734.382,326.549 723.549,315.716 720,297.5C 717.245,273.637 726.745,257.304 748.5,248.5 Z M 753.5,253.5 C 764.72,254.736 769.72,261.069 768.5,272.5C 758.839,272.042 749.172,271.709 739.5,271.5C 740.357,262.419 745.023,256.419 753.5,253.5 Z"/></g>
<g><path style="opacity:0.937" fill="#41aee3" d="M 311.5,254.5 C 321.138,253.993 330.138,256.16 338.5,261C 344.564,266.07 347.23,272.57 346.5,280.5C 331.848,281.303 317.181,281.637 302.5,281.5C 302.277,289.547 302.777,297.547 304,305.5C 307.643,319.242 316.477,324.742 330.5,322C 336.029,319.305 340.029,315.138 342.5,309.5C 343.689,308.571 345.022,308.238 346.5,308.5C 342.977,325.158 332.643,332.324 315.5,330C 298.991,327.533 289.158,318.033 286,301.5C 283.288,284.29 288.455,270.123 301.5,259C 304.893,257.38 308.226,255.88 311.5,254.5 Z M 313.5,259.5 C 325.52,258.854 331.187,264.52 330.5,276.5C 321.5,276.5 312.5,276.5 303.5,276.5C 304.378,269.31 307.712,263.644 313.5,259.5 Z"/></g>
<g><path style="opacity:0.939" fill="#41aee3" d="M 445.5,251.5 C 459.875,250.613 464.875,256.946 460.5,270.5C 456.038,274.446 451.538,274.446 447,270.5C 446.071,266.756 446.571,263.256 448.5,260C 443.107,259.712 439.607,262.212 438,267.5C 435.739,285.105 435.073,302.772 436,320.5C 436.309,321.766 436.809,322.933 437.5,324C 439.833,324.333 442.167,324.667 444.5,325C 445.973,325.71 446.64,326.876 446.5,328.5C 437.535,329.581 428.535,329.748 419.5,329C 415.812,328.81 412.312,327.976 409,326.5C 399.112,332.657 390.612,331.323 383.5,322.5C 374.632,331.263 364.632,332.763 353.5,327C 345.717,312.016 349.383,300.682 364.5,293C 370.616,290.388 376.949,288.555 383.5,287.5C 384.45,279.434 382.117,272.6 376.5,267C 369.125,264.188 363.458,266.188 359.5,273C 360.356,275.354 362.023,276.854 364.5,277.5C 368.03,288.133 364.363,292.3 353.5,290C 348.332,283.066 348.165,275.899 353,268.5C 358.231,263.309 364.565,260.642 372,260.5C 378.323,260.859 384.489,262.026 390.5,264C 393.728,265.563 395.895,268.063 397,271.5C 398.222,287.799 398.888,304.132 399,320.5C 399.347,322.18 400.347,323.18 402,323.5C 405,322.167 408,320.833 411,319.5C 413.48,320.122 413.98,321.456 412.5,323.5C 415.622,326.422 418.122,326.088 420,322.5C 420.893,303.136 420.559,283.803 419,264.5C 418.626,263.584 418.126,262.75 417.5,262C 415.167,261.667 412.833,261.333 410.5,261C 406.548,258.683 406.882,256.849 411.5,255.5C 415.131,256.515 418.798,256.681 422.5,256C 425.868,254.449 429.368,253.283 433,252.5C 435.303,253.751 436.636,255.751 437,258.5C 439.441,255.546 442.275,253.213 445.5,251.5 Z M 377.5,293.5 C 379.5,293.5 381.5,293.5 383.5,293.5C 383.968,301.324 383.135,308.991 381,316.5C 375.624,323.017 370.29,323.017 365,316.5C 362.108,308.425 364.274,301.925 371.5,297C 373.727,296.059 375.727,294.892 377.5,293.5 Z"/></g>
<g><path style="opacity:0.976" fill="#ff9305" d="M 113.5,272.5 C 114.765,273.514 115.431,275.014 115.5,277C 116.075,283.986 116.409,290.986 116.5,298C 115.675,324.494 115.341,350.994 115.5,377.5C 365.084,377.529 613.251,377.529 860,377.5C 917.766,378.165 975.599,378.831 1033.5,379.5C 1025.69,391.138 1017.69,402.638 1009.5,414C 711.835,415.313 414.168,415.813 116.5,415.5C 116.333,465.168 116.5,514.834 117,564.5C 123.749,579.303 133.915,582.136 147.5,573C 155.174,564.827 160.674,555.327 164,544.5C 171.833,550.333 179.667,556.167 187.5,562C 188.804,562.804 189.471,563.971 189.5,565.5C 180.972,590.063 165.305,608.563 142.5,621C 129.056,625.379 116.389,623.712 104.5,616C 89.4293,607.599 79.596,595.099 75,578.5C 73.7027,524.175 73.2027,469.842 73.5,415.5C 56.1635,415.667 38.8301,415.5 21.5,415C 16.4671,414.829 11.4671,414.329 6.5,413.5C 15.3081,401.525 24.3081,389.691 33.5,378C 47.1322,376.689 60.7989,376.189 74.5,376.5C 74.722,355.49 74.3887,334.49 73.5,313.5C 73.6314,307.8 74.1314,302.134 75,296.5C 87.9815,288.6 100.815,280.6 113.5,272.5 Z"/></g>
<g><path style="opacity:0.984" fill="#ff9205" d="M 235.5,428.5 C 270.173,430.148 304.839,431.982 339.5,434C 358.776,437.369 368.61,448.869 369,468.5C 369.333,508.833 369.667,549.167 370,589.5C 371.458,591.96 373.291,594.127 375.5,596C 381.085,597.186 386.751,597.852 392.5,598C 381.94,610.364 368.773,618.53 353,622.5C 339.207,620.04 330.541,612.04 327,598.5C 316.088,606.041 304.921,613.207 293.5,620C 279.889,624.291 266.889,622.957 254.5,616C 231.348,601.355 217.681,580.522 213.5,553.5C 214.028,539.45 219.195,527.45 229,517.5C 247.366,498.562 269.533,486.228 295.5,480.5C 307.8,483.73 317.3,490.73 324,501.5C 325.141,497.007 325.641,492.34 325.5,487.5C 327.933,478.048 324.933,471.214 316.5,467C 310.543,465.84 304.543,465.007 298.5,464.5C 281.936,465.985 265.436,467.985 249,470.5C 235.58,470.121 224.247,465.121 215,455.5C 210.05,448.387 210.55,441.887 216.5,436C 222.509,432.316 228.842,429.816 235.5,428.5 Z M 276.5,506.5 C 297.641,511.473 311.141,524.473 317,545.5C 319.501,553.672 320.501,562.005 320,570.5C 314.918,585.579 304.418,592.746 288.5,592C 274.283,586.559 260.949,579.559 248.5,571C 239.77,564.149 237.604,555.649 242,545.5C 250.165,529.505 261.665,516.505 276.5,506.5 Z"/></g>
<g><path style="opacity:0.984" fill="#ff9205" d="M 636.5,429.5 C 673.205,430.002 709.871,431.502 746.5,434C 764.681,436.843 774.514,447.343 776,465.5C 776.333,506.5 776.667,547.5 777,588.5C 778.105,591.937 780.272,594.437 783.5,596C 788.75,597.174 794.084,597.841 799.5,598C 790.52,609.156 779.186,616.823 765.5,621C 749.328,622.163 738.828,614.996 734,599.5C 723.5,606 713,612.5 702.5,619C 684.445,625.158 668.112,622.158 653.5,610C 635.273,595.215 624.273,576.215 620.5,553C 622.482,535.035 630.482,520.369 644.5,509C 661.595,495.786 680.595,486.286 701.5,480.5C 710.77,481.718 718.603,485.718 725,492.5C 727.268,496.051 729.768,499.384 732.5,502.5C 733.917,493.109 733.75,483.776 732,474.5C 730.321,470.23 727.155,467.73 722.5,467C 717.436,465.52 712.269,464.687 707,464.5C 689.942,466.032 672.942,468.032 656,470.5C 642.584,470.123 631.251,465.123 622,455.5C 616.884,448.498 617.384,441.998 623.5,436C 627.771,433.533 632.104,431.366 636.5,429.5 Z M 681.5,507.5 C 696.129,508.23 707.629,514.563 716,526.5C 722.249,537.914 726.082,550.08 727.5,563C 726.464,581.369 716.798,591.036 698.5,592C 682.986,587.281 668.652,580.281 655.5,571C 647.777,565.165 645.277,557.665 648,548.5C 656.095,532.246 667.262,518.58 681.5,507.5 Z"/></g>
<g><path style="opacity:0.986" fill="#ff9205" d="M 866.5,428.5 C 891.09,432.06 915.756,435.06 940.5,437.5C 951.168,437.333 961.168,434.666 970.5,429.5C 968.431,446.839 961.931,462.506 951,476.5C 946.011,481.795 939.844,484.128 932.5,483.5C 915.542,481.928 898.875,478.761 882.5,474C 872.883,472.174 863.216,470.674 853.5,469.5C 847.799,469.55 842.632,471.216 838,474.5C 837.333,478.167 837.333,481.833 838,485.5C 844.477,499.978 855.31,509.478 870.5,514C 875.328,514.629 879.995,513.962 884.5,512C 898.5,504 912.5,496 926.5,488C 942.735,482.267 956.235,486.1 967,499.5C 979.626,517.847 981.959,537.514 974,558.5C 969.415,567.342 964.082,575.675 958,583.5C 950.607,590.729 942.774,597.396 934.5,603.5C 940.455,608.284 946.289,613.284 952,618.5C 953.957,622.327 954.957,626.327 955,630.5C 941.693,635.658 928.193,640.325 914.5,644.5C 911.963,637.39 909.129,630.39 906,623.5C 904.5,622 903,620.5 901.5,619C 862.074,619.2 828.907,605.034 802,576.5C 799.783,560.831 805.45,548.831 819,540.5C 826.373,552.211 835.54,562.377 846.5,571C 868.382,586.207 891.715,589.207 916.5,580C 930.447,569.273 937.28,555.106 937,537.5C 935.801,530.326 931.634,527.159 924.5,528C 902.842,537.775 880.342,544.941 857,549.5C 838.858,549.765 824.858,542.432 815,527.5C 802.341,505.297 801.341,482.631 812,459.5C 825.84,441.498 844.006,431.165 866.5,428.5 Z"/></g>
<g><path style="opacity:0.986" fill="#ff9205" d="M 458.5,428.5 C 459.814,430.915 460.481,433.748 460.5,437C 460.846,452.562 461.846,468.062 463.5,483.5C 472.135,469.689 482.468,457.189 494.5,446C 515.196,430.645 536.529,429.645 558.5,443C 565.499,447.096 571.666,452.262 577,458.5C 583,467.167 589,475.833 595,484.5C 607.347,505.497 609.68,527.497 602,550.5C 594.898,566.922 585.398,581.756 573.5,595C 559.647,608.928 542.98,617.594 523.5,621C 499.603,625.495 479.436,618.995 463,601.5C 462.333,630.167 462.333,658.833 463,687.5C 469.522,704.928 464.689,718.428 448.5,728C 439.507,729.089 432.34,725.922 427,718.5C 423.279,713.725 420.612,708.391 419,702.5C 417.499,621.723 417.165,540.723 418,459.5C 418.011,456.341 418.845,453.507 420.5,451C 433.395,443.726 446.062,436.226 458.5,428.5 Z M 513.5,469.5 C 540.46,475.624 557.96,491.957 566,518.5C 570.516,531.238 571.849,544.238 570,557.5C 562.779,575.706 549.279,584.206 529.5,583C 510.337,575.753 492.337,566.42 475.5,555C 465.933,547.633 462.766,538.133 466,526.5C 472.412,511.42 481.246,497.92 492.5,486C 499.4,480.255 506.4,474.755 513.5,469.5 Z"/></g>
<g><path style="opacity:0.968" fill="#19fd3f" d="M 612.5,654.5 C 614.164,655.949 614.998,657.949 615,660.5C 615.333,666.167 615.667,671.833 616,677.5C 622.946,663.517 634.113,656.684 649.5,657C 655.378,658.525 660.211,661.692 664,666.5C 679.881,684.607 680.548,703.274 666,722.5C 654.495,734.783 640.662,738.949 624.5,735C 622.246,733.623 620.08,732.123 618,730.5C 616.921,736.937 616.421,743.437 616.5,750C 616.861,758.182 617.028,766.348 617,774.5C 613.641,781.873 608.475,783.373 601.5,779C 599.959,777.421 598.792,775.587 598,773.5C 596.462,740.516 596.129,707.516 597,674.5C 597.388,670.781 598.055,667.114 599,663.5C 603.479,660.353 607.979,657.353 612.5,654.5 Z M 637.5,672.5 C 649.444,675.65 656.944,683.317 660,695.5C 663.921,708.973 659.087,716.973 645.5,719.5C 636.627,716.471 628.293,712.305 620.5,707C 616.733,701.959 616.566,696.792 620,691.5C 624.482,683.829 630.315,677.496 637.5,672.5 Z"/></g>
<g><path style="opacity:0.967" fill="#19fd3f" d="M 746.5,654.5 C 754.317,656.176 759.817,660.509 763,667.5C 759.057,671.221 754.557,674.055 749.5,676C 736.409,676.558 723.409,677.558 710.5,679C 698.918,693.444 700.251,706.778 714.5,719C 725.188,725.554 735.188,724.554 744.5,716C 751.156,710.517 756.49,704.017 760.5,696.5C 762.985,701.386 763.151,706.386 761,711.5C 744.041,741.226 722.541,745.059 696.5,723C 693.469,720.441 691.302,717.274 690,713.5C 684.095,690.183 691.261,672.35 711.5,660C 719.131,658.96 726.798,658.294 734.5,658C 738.709,657.119 742.709,655.953 746.5,654.5 Z"/></g>
<g><path style="opacity:0.966" fill="#19fc3f" d="M 807.5,656.5 C 820.66,655.832 831.494,660.498 840,670.5C 840.738,674.261 840.405,677.928 839,681.5C 831.433,689.737 823.267,697.237 814.5,704C 808.469,706.658 802.136,708.158 795.5,708.5C 799.758,714.807 805.425,719.473 812.5,722.5C 826.439,717.729 837.272,709.062 845,696.5C 847.186,702.914 846.852,709.248 844,715.5C 835.481,727.922 823.814,735.255 809,737.5C 792.377,734.56 780.71,725.227 774,709.5C 766.499,686.666 773.665,670.166 795.5,660C 799.623,658.808 803.623,657.641 807.5,656.5 Z M 809.5,669.5 C 816.283,668.213 820.283,670.88 821.5,677.5C 819.579,685.47 814.579,690.303 806.5,692C 802.044,692.867 797.711,692.534 793.5,691C 790.346,688.225 789.846,685.058 792,681.5C 796.84,675.847 802.673,671.847 809.5,669.5 Z"/></g>
<g><path style="opacity:0.947" fill="#3b0101" d="M 96.5,676.5 C 174.834,676.333 253.167,676.5 331.5,677C 351.508,677.167 371.508,677.667 391.5,678.5C 386.361,686.139 381.027,693.639 375.5,701C 257.167,703 138.833,703 20.5,701C 25.2509,693.083 30.5842,685.583 36.5,678.5C 56.6626,677.833 76.6626,677.167 96.5,676.5 Z"/></g>
<g><path style="opacity:0.941" fill="#3c0001" d="M 522.5,676.5 C 538.17,676.333 553.837,676.5 569.5,677C 573.541,677.173 577.541,677.673 581.5,678.5C 576.044,685.912 570.711,693.412 565.5,701C 541.932,701.764 518.599,701.43 495.5,700C 500.253,692.493 505.253,685.16 510.5,678C 514.688,677.824 518.688,677.324 522.5,676.5 Z"/></g>
<g><path style="opacity:0.943" fill="#3b0101" d="M 888.5,676.5 C 912.502,676.333 936.502,676.5 960.5,677C 966.859,677.169 973.193,677.669 979.5,678.5C 974.044,685.912 968.711,693.412 963.5,701C 926.833,703 890.167,703 853.5,701C 858.833,693.333 864.167,685.667 869.5,678C 876.013,677.828 882.347,677.328 888.5,676.5 Z"/></g>
<g><path style="opacity:0.848" fill="#252525" d="M 45.5,806.5 C 47.5824,806.472 49.4157,807.139 51,808.5C 54.6667,815.833 58.3333,823.167 62,830.5C 66,823.167 70,815.833 74,808.5C 75.8449,806.65 77.8449,806.317 80,807.5C 81.321,820.128 81.821,832.795 81.5,845.5C 79.1667,845.5 76.8333,845.5 74.5,845.5C 74.9602,838.323 74.4602,831.323 73,824.5C 69.5,830.833 66,837.167 62.5,843.5C 58.4925,837.488 54.9925,831.155 52,824.5C 50.5398,831.323 50.0398,838.323 50.5,845.5C 48.5328,845.739 46.6995,845.406 45,844.5C 43.4956,832.539 43.1623,820.539 44,808.5C 44.7172,807.956 45.2172,807.289 45.5,806.5 Z"/></g>
<g><path style="opacity:0.803" fill="#252525" d="M 88.5,806.5 C 97.1731,806.334 105.84,806.5 114.5,807C 116.155,808.444 116.822,810.278 116.5,812.5C 109.167,812.5 101.833,812.5 94.5,812.5C 94.5,815.833 94.5,819.167 94.5,822.5C 100.869,822.347 107.203,822.68 113.5,823.5C 113.5,825.167 113.5,826.833 113.5,828.5C 107.167,828.5 100.833,828.5 94.5,828.5C 94.5,832.167 94.5,835.833 94.5,839.5C 101.508,839.334 108.508,839.5 115.5,840C 116.406,841.699 116.739,843.533 116.5,845.5C 107.143,845.65 97.8092,845.317 88.5,844.5C 88.5,831.833 88.5,819.167 88.5,806.5 Z"/></g>
<g><path style="opacity:0.815" fill="#242424" d="M 126.5,806.5 C 134.986,806.23 142.986,808.064 150.5,812C 156.519,820.508 157.019,829.341 152,838.5C 150.442,840.359 148.609,841.859 146.5,843C 138.295,844.967 129.961,845.801 121.5,845.5C 121.345,832.815 121.678,820.149 122.5,807.5C 124.099,807.768 125.432,807.434 126.5,806.5 Z M 128.5,812.5 C 136.726,811.202 143.226,813.869 148,820.5C 150.772,828.13 148.605,833.963 141.5,838C 137.27,839.29 132.936,839.79 128.5,839.5C 128.5,830.5 128.5,821.5 128.5,812.5 Z"/></g>
<g><path style="opacity:0.689" fill="#242424" d="M 162.5,806.5 C 164.167,806.5 165.833,806.5 167.5,806.5C 167.5,819.5 167.5,832.5 167.5,845.5C 165.533,845.739 163.699,845.406 162,844.5C 161.188,831.758 161.354,819.091 162.5,806.5 Z"/></g>
<g><path style="opacity:0.866" fill="#242424" d="M 217.5,806.5 C 219.827,806.247 221.827,806.914 223.5,808.5C 228.89,820.338 233.89,832.338 238.5,844.5C 236.926,845.631 235.259,845.798 233.5,845C 231.583,842.502 229.916,839.835 228.5,837C 222.415,836.139 216.415,836.473 210.5,838C 209.167,840.333 207.833,842.667 206.5,845C 204.559,845.743 202.726,845.576 201,844.5C 205.788,831.675 211.288,819.009 217.5,806.5 Z M 218.5,816.5 C 221.518,820.689 224.185,825.189 226.5,830C 221.953,831.545 217.287,831.879 212.5,831C 215.477,826.55 217.477,821.716 218.5,816.5 Z"/></g>
<g><path style="opacity:0.678" fill="#242424" d="M 272.5,806.5 C 274.467,806.261 276.301,806.594 278,807.5C 278.667,819.833 278.667,832.167 278,844.5C 276.301,845.406 274.467,845.739 272.5,845.5C 272.5,832.5 272.5,819.5 272.5,806.5 Z"/></g>
<g><path style="opacity:0.866" fill="#242424" d="M 296.5,806.5 C 316.989,805.172 325.156,814.506 321,834.5C 314.975,845.082 306.142,848.249 294.5,844C 282.623,835.28 280.79,824.78 289,812.5C 291.478,810.361 293.978,808.361 296.5,806.5 Z M 298.5,812.5 C 312.219,812.385 317.719,819.052 315,832.5C 309.879,839.712 303.379,841.212 295.5,837C 288.095,827.741 289.095,819.574 298.5,812.5 Z"/></g>
<g><path style="opacity:0.758" fill="#232323" d="M 328.5,806.5 C 332.664,806.143 335.831,807.81 338,811.5C 343.245,818.324 348.245,825.324 353,832.5C 354.203,824.203 355.203,815.87 356,807.5C 357.333,806.167 358.667,806.167 360,807.5C 361.321,820.128 361.821,832.795 361.5,845.5C 358.138,845.93 355.305,844.93 353,842.5C 347.333,834.833 341.667,827.167 336,819.5C 334.559,828.058 334.059,836.724 334.5,845.5C 332.5,845.5 330.5,845.5 328.5,845.5C 328.5,832.5 328.5,819.5 328.5,806.5 Z"/></g>
<g><path style="opacity:0.865" fill="#242424" d="M 398.5,806.5 C 400.722,806.178 402.556,806.845 404,808.5C 409.407,820.616 414.24,832.616 418.5,844.5C 416.833,845.833 415.167,845.833 413.5,844.5C 412.081,842.664 410.914,840.664 410,838.5C 409.25,837.874 408.416,837.374 407.5,837C 402.167,836.333 396.833,836.333 391.5,837C 390.084,839.835 388.417,842.502 386.5,845C 384.741,845.798 383.074,845.631 381.5,844.5C 386.124,831.262 391.79,818.595 398.5,806.5 Z M 399.5,816.5 C 402.266,821.191 404.932,826.024 407.5,831C 402.713,831.879 398.047,831.545 393.5,830C 396.181,825.785 398.181,821.285 399.5,816.5 Z"/></g>
<g><path style="opacity:0.785" fill="#242424" d="M 425.5,806.5 C 427.144,806.286 428.644,806.62 430,807.5C 436.692,816.025 443.192,824.692 449.5,833.5C 450.498,824.525 450.832,815.525 450.5,806.5C 452.5,806.5 454.5,806.5 456.5,806.5C 456.5,819.5 456.5,832.5 456.5,845.5C 452.336,845.857 449.169,844.19 447,840.5C 442,833.833 437,827.167 432,820.5C 430.562,828.723 430.062,837.057 430.5,845.5C 428.167,845.5 425.833,845.5 423.5,845.5C 423.036,832.38 423.703,819.38 425.5,806.5 Z"/></g>
<g><path style="opacity:0.783" fill="#242424" d="M 464.5,806.5 C 473.062,806.128 481.395,807.295 489.5,810C 498.188,816.746 500.355,825.246 496,835.5C 491.624,841.939 485.457,845.106 477.5,845C 473.179,845.499 468.846,845.666 464.5,845.5C 464.5,832.5 464.5,819.5 464.5,806.5 Z M 470.5,812.5 C 482.203,810.668 489.537,815.335 492.5,826.5C 491.369,833.463 487.369,837.63 480.5,839C 477.183,839.498 473.85,839.665 470.5,839.5C 470.5,830.5 470.5,821.5 470.5,812.5 Z"/></g>
<g><path style="opacity:0.859" fill="#242424" d="M 517.5,806.5 C 519.467,806.261 521.301,806.594 523,807.5C 526.147,815.947 529.48,824.28 533,832.5C 535.735,824.129 538.568,815.796 541.5,807.5C 543.484,806.294 545.484,806.294 547.5,807.5C 550.304,815.914 553.304,824.247 556.5,832.5C 559.393,824.767 562.06,816.934 564.5,809C 566.375,806.525 568.709,806.025 571.5,807.5C 568.408,820.202 564.242,832.535 559,844.5C 557.333,845.833 555.667,845.833 554,844.5C 550.457,835.533 547.123,826.533 544,817.5C 541.011,826.459 538.177,835.459 535.5,844.5C 533.516,845.706 531.516,845.706 529.5,844.5C 524.573,832.124 520.573,819.457 517.5,806.5 Z"/></g>
<g><path style="opacity:0.799" fill="#242424" d="M 577.5,806.5 C 586.167,806.5 594.833,806.5 603.5,806.5C 603.5,808.5 603.5,810.5 603.5,812.5C 596.5,812.5 589.5,812.5 582.5,812.5C 582.5,815.833 582.5,819.167 582.5,822.5C 588.863,822.407 595.196,822.74 601.5,823.5C 601.5,825.167 601.5,826.833 601.5,828.5C 595.167,828.5 588.833,828.5 582.5,828.5C 582.5,832.167 582.5,835.833 582.5,839.5C 589.529,839.377 596.529,839.71 603.5,840.5C 603.5,842.167 603.5,843.833 603.5,845.5C 594.582,845.817 585.749,845.484 577,844.5C 574.865,831.749 575.031,819.082 577.5,806.5 Z"/></g>
<g><path style="opacity:0.709" fill="#252525" d="M 608.5,806.5 C 610.5,806.5 612.5,806.5 614.5,806.5C 614.5,817.5 614.5,828.5 614.5,839.5C 620.842,839.334 627.175,839.5 633.5,840C 634.406,841.699 634.739,843.533 634.5,845.5C 625.805,845.673 617.138,845.34 608.5,844.5C 608.5,831.833 608.5,819.167 608.5,806.5 Z"/></g>
<g><path style="opacity:0.811" fill="#242424" d="M 637.5,806.5 C 639.467,806.261 641.301,806.594 643,807.5C 643.5,818.161 643.667,828.828 643.5,839.5C 650.167,839.5 656.833,839.5 663.5,839.5C 663.5,841.167 663.5,842.833 663.5,844.5C 654.858,845.299 646.191,845.632 637.5,845.5C 637.5,832.5 637.5,819.5 637.5,806.5 Z"/></g>
<g><path style="opacity:0.797" fill="#242424" d="M 668.5,806.5 C 671.157,806.162 673.49,806.829 675.5,808.5C 681.14,816.64 686.973,824.64 693,832.5C 694.441,823.942 694.941,815.276 694.5,806.5C 696.467,806.261 698.301,806.594 700,807.5C 700.5,820.162 700.667,832.829 700.5,845.5C 697.843,845.838 695.51,845.171 693.5,843.5C 687.86,835.36 682.027,827.36 676,819.5C 674.559,828.058 674.059,836.724 674.5,845.5C 672.533,845.739 670.699,845.406 669,844.5C 668.5,831.838 668.333,819.171 668.5,806.5 Z"/></g>
<g><path style="opacity:0.789" fill="#242424" d="M 709.5,806.5 C 718.167,806.5 726.833,806.5 735.5,806.5C 735.5,808.5 735.5,810.5 735.5,812.5C 728.5,812.5 721.5,812.5 714.5,812.5C 714.5,815.833 714.5,819.167 714.5,822.5C 720.863,822.407 727.196,822.74 733.5,823.5C 733.5,825.167 733.5,826.833 733.5,828.5C 727.167,828.5 720.833,828.5 714.5,828.5C 714.5,832.167 714.5,835.833 714.5,839.5C 721.529,839.377 728.529,839.71 735.5,840.5C 735.5,842.167 735.5,843.833 735.5,845.5C 726.582,845.817 717.749,845.484 709,844.5C 706.865,831.749 707.031,819.082 709.5,806.5 Z"/></g>
<g><path style="opacity:0.865" fill="#242424" d="M 747.5,806.5 C 755.301,805.128 761.968,807.128 767.5,812.5C 765.742,816.84 763.409,817.34 760.5,814C 756.928,812.595 753.261,812.262 749.5,813C 746.014,814.947 745.681,817.28 748.5,820C 753.58,821.804 758.58,823.804 763.5,826C 770.051,831.875 770.051,837.875 763.5,844C 756.667,846.315 750,845.982 743.5,843C 741.981,841.649 740.648,840.149 739.5,838.5C 740.5,837.167 741.5,835.833 742.5,834.5C 747.761,839.419 753.761,840.585 760.5,838C 763.319,835.28 762.986,832.947 759.5,831C 753.216,829.464 747.383,826.964 742,823.5C 739.256,816.327 741.089,810.661 747.5,806.5 Z"/></g>
<g><path style="opacity:0.864" fill="#242424" d="M 779.5,806.5 C 787.301,805.128 793.968,807.128 799.5,812.5C 798.974,814.23 797.974,815.564 796.5,816.5C 791.646,812.524 786.312,811.691 780.5,814C 777.833,816 777.833,818 780.5,820C 785.091,821.864 789.757,823.53 794.5,825C 800.859,829.299 802.025,834.799 798,841.5C 790.88,846.273 783.38,846.773 775.5,843C 774.167,841.667 772.833,840.333 771.5,839C 772.304,837.229 773.471,835.729 775,834.5C 780.085,839.464 785.918,840.631 792.5,838C 795.08,835.88 795.08,833.713 792.5,831.5C 788.233,829.849 783.9,828.349 779.5,827C 772.722,823.607 770.889,818.441 774,811.5C 775.812,809.7 777.645,808.033 779.5,806.5 Z"/></g>
<g><path style="opacity:0.828" fill="#242424" d="M 832.5,806.5 C 838.345,806.151 844.012,806.984 849.5,809C 853.438,811.601 853.438,814.101 849.5,816.5C 838.024,809.081 830.024,811.747 825.5,824.5C 826.61,835.446 832.61,840.279 843.5,839C 845.37,837.634 847.37,836.467 849.5,835.5C 853.079,837.16 853.412,839.327 850.5,842C 842.529,846.598 834.529,846.598 826.5,842C 817.537,831.957 817.204,821.624 825.5,811C 827.898,809.476 830.231,807.976 832.5,806.5 Z"/></g>
<g><path style="opacity:0.817" fill="#242424" d="M 857.5,806.5 C 858.822,806.33 859.989,806.663 861,807.5C 862.312,818.122 862.812,828.789 862.5,839.5C 868.869,839.347 875.203,839.68 881.5,840.5C 881.5,841.833 881.5,843.167 881.5,844.5C 872.858,845.299 864.191,845.632 855.5,845.5C 855.036,832.38 855.703,819.38 857.5,806.5 Z"/></g>
<g><path style="opacity:0.79" fill="#242424" d="M 887.5,806.5 C 889.167,806.5 890.833,806.5 892.5,806.5C 892.334,815.506 892.5,824.506 893,833.5C 898.496,842.328 904.496,842.661 911,834.5C 912.098,825.537 912.765,816.537 913,807.5C 914.699,806.594 916.533,806.261 918.5,806.5C 918.979,817.293 918.146,827.959 916,838.5C 912.983,843.592 908.483,845.926 902.5,845.5C 895.988,845.828 891.155,843.162 888,837.5C 886.215,827.164 886.049,816.831 887.5,806.5 Z"/></g>
<g><path style="opacity:0.837" fill="#242424" d="M 930.5,806.5 C 936.555,806.338 942.555,806.838 948.5,808C 955.543,812.888 956.21,818.555 950.5,825C 957.154,831.379 957.154,837.713 950.5,844C 942.208,845.184 933.875,845.684 925.5,845.5C 925.345,832.815 925.678,820.149 926.5,807.5C 928.099,807.768 929.432,807.434 930.5,806.5 Z M 931.5,812.5 C 936.248,812.275 940.915,812.775 945.5,814C 949.42,817.549 948.753,820.215 943.5,822C 939.514,822.499 935.514,822.666 931.5,822.5C 931.5,819.167 931.5,815.833 931.5,812.5 Z M 931.5,828.5 C 936.511,828.334 941.511,828.501 946.5,829C 950.072,831.626 950.405,834.626 947.5,838C 942.233,839.191 936.899,839.691 931.5,839.5C 931.5,835.833 931.5,832.167 931.5,828.5 Z"/></g>
<g><path style="opacity:0.864" fill="#252525" d="M 179.5,806.5 C 187.167,806.5 194.833,806.5 202.5,806.5C 202.643,808.262 202.309,809.929 201.5,811.5C 197.893,812.489 194.226,812.823 190.5,812.5C 190.5,823.5 190.5,834.5 190.5,845.5C 188.167,845.5 185.833,845.5 183.5,845.5C 183.5,834.5 183.5,823.5 183.5,812.5C 179.5,812.5 175.5,812.5 171.5,812.5C 171.286,810.856 171.62,809.356 172.5,808C 175.036,807.814 177.369,807.314 179.5,806.5 Z"/></g>
<g><path style="opacity:0.759" fill="#242424" d="M 245.5,806.5 C 253.167,806.5 260.833,806.5 268.5,806.5C 268.643,808.262 268.309,809.929 267.5,811.5C 263.893,812.489 260.226,812.823 256.5,812.5C 256.5,823.5 256.5,834.5 256.5,845.5C 254.533,845.739 252.699,845.406 251,844.5C 250.5,833.839 250.333,823.172 250.5,812.5C 246.167,812.5 241.833,812.5 237.5,812.5C 237.286,810.856 237.62,809.356 238.5,808C 241.036,807.814 243.369,807.314 245.5,806.5 Z"/></g>
</svg>
